HIERARCHY
ROOT joint_Root
{
	OFFSET 0.0 0.0 0.0
	CHANNELS 6 Xposition Yposition Zposition Zrotation Xrotation Yrotation 
	JOINT Hips
	{
		OFFSET -0.726466 93.3139 -2.00062
		CHANNELS 6 Xposition Yposition Zposition Zrotation Xrotation Yrotation 
		JOINT Spine
		{
			OFFSET 15.7357 0.0 0.0
			CHANNELS 6 Xposition Yposition Zposition Zrotation Xrotation Yrotation 
			JOINT Chest
			{
				OFFSET 8.98455 -0.406207 0.0
				CHANNELS 6 Xposition Yposition Zposition Zrotation Xrotation Yrotation 
				JOINT Neck
				{
					OFFSET 16.3773 0.0 0.0
					CHANNELS 6 Xposition Yposition Zposition Zrotation Xrotation Yrotation 
					JOINT Head
					{
						OFFSET 6.45672 0.0 0.0
						CHANNELS 6 Xposition Yposition Zposition Zrotation Xrotation Yrotation 
						End Site
						{
							OFFSET 0.0 0.0 0.0
						}
					}
				}
				JOINT Shoulder_L
				{
					OFFSET 12.9942 -0.242716 4.98039
					CHANNELS 6 Xposition Yposition Zposition Zrotation Xrotation Yrotation 
					JOINT UpperArm_L
					{
						OFFSET 5.34809 0.0 0.0
						CHANNELS 6 Xposition Yposition Zposition Zrotation Xrotation Yrotation 
						JOINT LowerArm_L
						{
							OFFSET 24.3286 1.87007e-05 0.0
							CHANNELS 6 Xposition Yposition Zposition Zrotation Xrotation Yrotation 
							JOINT Hand_L
							{
								OFFSET 22.2916 0.0 0.0
								CHANNELS 6 Xposition Yposition Zposition Zrotation Xrotation Yrotation 
								End Site
								{
									OFFSET 0.0 0.0 0.0
								}
							}
						}
					}
				}
				JOINT Shoulder_R
				{
					OFFSET 12.9945 -0.242716 -4.98039
					CHANNELS 6 Xposition Yposition Zposition Zrotation Xrotation Yrotation 
					JOINT UpperArm_R
					{
						OFFSET -5.34813 0.0 0.0
						CHANNELS 6 Xposition Yposition Zposition Zrotation Xrotation Yrotation 
						JOINT LowerArm_R
						{
							OFFSET -24.3289 0.000322201 0.0
							CHANNELS 6 Xposition Yposition Zposition Zrotation Xrotation Yrotation 
							JOINT Hand_R
							{
								OFFSET -22.2915 -0.000108084 0.0
								CHANNELS 6 Xposition Yposition Zposition Zrotation Xrotation Yrotation 
								End Site
								{
									OFFSET 0.0 0.0 0.0
								}
							}
						}
					}
				}
			}
		}
		JOINT UpperLeg_L
		{
			OFFSET -2.19248 -6.46944 0.0
			CHANNELS 6 Xposition Yposition Zposition Zrotation Xrotation Yrotation 
			JOINT LowerLeg_L
			{
				OFFSET 39.0811 0.0 -1.23785e-05
				CHANNELS 6 Xposition Yposition Zposition Zrotation Xrotation Yrotation 
				JOINT Foot_L
				{
					OFFSET 40.9854 0.0 -1.26872e-05
					CHANNELS 6 Xposition Yposition Zposition Zrotation Xrotation Yrotation 
					JOINT Toes_L
					{
						OFFSET 11.7543 0.0 0.0
						CHANNELS 6 Xposition Yposition Zposition Zrotation Xrotation Yrotation 
						End Site
						{
							OFFSET 0.0 0.0 0.0
						}
					}
				}
			}
		}
		JOINT UpperLeg_R
		{
			OFFSET -2.19251 6.46944 0.0
			CHANNELS 6 Xposition Yposition Zposition Zrotation Xrotation Yrotation 
			JOINT LowerLeg_R
			{
				OFFSET -39.0811 -0.00228153 -0.0401928
				CHANNELS 6 Xposition Yposition Zposition Zrotation Xrotation Yrotation 
				JOINT Foot_R
				{
					OFFSET -40.9854 0.0 0.0
					CHANNELS 6 Xposition Yposition Zposition Zrotation Xrotation Yrotation 
					JOINT Toes_R
					{
						OFFSET -11.7543 0.0 0.0
						CHANNELS 6 Xposition Yposition Zposition Zrotation Xrotation Yrotation 
						End Site
						{
							OFFSET 0.0 0.0 0.0
						}
					}
				}
			}
		}
	}
}
MOTION
Frames:	6
Frame Time:	0.0333333
0.000000 0.000000 0.000000 0.000000 0.000000 -0.000000 -1.517710 92.095100 -1.655950 87.124300 -2.426110 3.138440 15.735700 0.000005 -0.000001 90.168100 86.143300 -90.916700 8.984550 -0.406207 -0.000000 -0.051659 0.073677 -1.496280 16.377300 -0.000001 -0.000001 -0.066264 -3.185210 1.256850 6.456720 -0.000001 -0.000000 -3.728410 -0.399638 -13.260000 12.994200 -0.242716 4.980390 -89.165400 -2.797070 -73.378400 5.348090 -0.000007 -0.000001 19.665700 77.052000 -69.193100 24.328600 0.000019 0.000005 12.997000 1.759100 -82.424300 22.291600 -0.000001 0.000005 31.915400 5.662280 -25.912900 12.994500 -0.242716 -4.980390 91.373100 -3.020480 -65.538700 -5.348130 -0.000001 -0.000004 -66.326400 -49.993400 -100.452000 -24.328900 0.000322 -0.000009 4.497060 1.722700 -69.088500 -22.291500 -0.000108 -0.000004 20.998400 5.474130 -5.525650 -2.192480 -6.469440 -0.000000 -168.157000 -15.505200 -2.124060 39.081100 -0.000007 -0.000012 -0.179065 0.458780 21.321300 40.985400 -0.000006 -0.000013 -6.250980 3.049620 -64.031100 11.754300 -0.000000 0.000003 -0.000026 -0.000321 -16.590100 -2.192510 6.469440 -0.000001 176.306000 18.455000 178.477000 -39.081100 -0.002282 -0.040193 0.042896 -0.107959 20.131800 -40.985400 0.000008 0.000006 0.369922 2.021740 -63.991300 -11.754300 -0.000006 -0.000006 -0.007352 -0.082659 -19.938400
0.000000 0.000000 0.000000 0.000000 0.000000 -0.000000 -1.487370 92.105400 -1.696440 87.089800 -2.455850 3.138320 15.735700 0.000005 -0.000001 90.242000 86.128900 -90.995500 8.984550 -0.406207 -0.000000 -0.022831 0.083897 -1.506040 16.377300 -0.000001 -0.000001 0.028000 -3.198780 1.267140 6.456720 -0.000001 -0.000000 -3.611920 -0.471478 -13.227500 12.994200 -0.242716 4.980390 -89.168200 -2.781650 -73.344200 5.348090 -0.000007 -0.000001 19.540800 77.025800 -69.028000 24.328600 0.000019 0.000005 12.933600 1.732750 -82.499100 22.291600 -0.000001 0.000005 31.754800 5.662890 -25.839000 12.994500 -0.242716 -4.980390 91.368900 -3.010540 -65.534700 -5.348130 -0.000001 -0.000004 -66.277600 -49.995300 -100.452000 -24.328900 0.000322 -0.000009 4.424780 1.692540 -69.115000 -22.291500 -0.000108 -0.000004 21.063300 5.473030 -5.484110 -2.192480 -6.469440 -0.000000 -168.151000 -15.471500 -2.147330 39.081100 -0.000007 -0.000012 -0.179784 0.460750 21.315900 40.985400 -0.000006 -0.000013 -6.238600 2.995110 -64.011900 11.754300 -0.000000 0.000003 -0.000037 -0.000439 -16.594600 -2.192510 6.469440 -0.000001 176.343000 18.434400 178.466000 -39.081100 -0.002282 -0.040193 0.042322 -0.106727 20.073400 -40.985400 0.000008 0.000006 0.414205 2.021750 -63.908200 -11.754300 -0.000006 -0.000006 -0.007239 -0.081701 -19.899300
0.000000 0.000000 0.000000 0.000000 0.000000 -0.000000 -1.470070 92.105700 -1.744740 87.094500 -2.505960 3.097380 15.735700 0.000005 -0.000001 90.327700 86.119800 -91.102200 8.984550 -0.406207 -0.000000 -0.004717 0.096873 -1.548070 16.377300 -0.000001 -0.000001 0.117080 -3.205760 1.262450 6.456720 -0.000001 -0.000000 -3.568790 -0.525460 -13.165900 12.994200 -0.242716 4.980390 -89.165700 -2.783680 -73.308800 5.348090 -0.000007 -0.000001 19.558100 77.006200 -69.033100 24.328600 0.000019 0.000005 12.906400 1.719230 -82.540900 22.291600 -0.000001 0.000005 31.788400 5.663320 -25.785800 12.994500 -0.242716 -4.980390 91.368100 -3.007700 -65.526200 -5.348130 -0.000001 -0.000004 -66.381700 -49.987900 -100.534000 -24.328900 0.000322 -0.000009 4.417420 1.685630 -69.161200 -22.291500 -0.000108 -0.000004 21.036700 5.476550 -5.617030 -2.192480 -6.469440 -0.000000 -168.197000 -15.524000 -2.246760 39.081100 -0.000007 -0.000012 -0.178638 0.456424 21.374900 40.985400 -0.000006 -0.000013 -6.213170 2.961630 -64.012500 11.754300 -0.000000 0.000003 -0.000033 -0.000393 -16.592900 -2.192510 6.469440 -0.000001 176.341000 18.429100 178.414000 -39.081100 -0.002282 -0.040193 0.042346 -0.107092 20.022000 -40.985400 0.000008 0.000006 0.389509 2.075680 -63.898600 -11.754300 -0.000006 -0.000006 -0.007072 -0.080284 -19.841500
0.000000 0.000000 0.000000 0.000000 0.000000 -0.000000 -1.456740 92.113200 -1.782850 87.082100 -2.530660 3.079220 15.735700 0.000005 -0.000001 90.226900 86.100800 -91.016500 8.984550 -0.406207 -0.000000 0.033446 0.084148 -1.578170 16.377300 -0.000001 -0.000001 0.174188 -3.220900 1.271420 6.456720 -0.000001 -0.000000 -3.527050 -0.534602 -13.159700 12.994200 -0.242716 4.980390 -89.163200 -2.793910 -73.319800 5.348090 -0.000007 -0.000001 19.330700 77.024500 -68.816500 24.328600 0.000019 0.000005 12.944000 1.736060 -82.491100 22.291600 -0.000001 0.000005 31.818200 5.662610 -25.872500 12.994500 -0.242716 -4.980390 91.366900 -3.005630 -65.530600 -5.348130 -0.000001 -0.000004 -66.530600 -49.985200 -100.669000 -24.328900 0.000322 -0.000009 4.404470 1.677110 -69.201600 -22.291500 -0.000108 -0.000004 20.911100 5.472860 -5.477930 -2.192480 -6.469440 -0.000000 -168.201000 -15.533000 -2.278250 39.081100 -0.000007 -0.000012 -0.179821 0.459874 21.356800 40.985400 -0.000006 -0.000013 -6.210600 2.922280 -63.982000 11.754300 -0.000000 0.000003 -0.000032 -0.000379 -16.592300 -2.192510 6.469440 -0.000001 176.364000 18.391000 178.392000 -39.081100 -0.002282 -0.040193 0.042495 -0.107841 19.964000 -40.985400 0.000008 0.000006 0.422937 2.069470 -63.853100 -11.754300 -0.000006 -0.000006 -0.007027 -0.079898 -19.825700
0.000000 0.000000 0.000000 0.000000 0.000000 -0.000000 -1.441380 92.121500 -1.823850 87.092900 -2.598130 3.036140 15.735700 0.000005 -0.000001 90.432100 86.085200 -91.242900 8.984550 -0.406207 -0.000000 0.064658 0.113505 -1.620580 16.377300 -0.000001 -0.000001 0.191275 -3.235150 1.276560 6.456720 -0.000001 -0.000000 -3.499020 -0.596098 -13.194800 12.994200 -0.242716 4.980390 -89.171500 -2.767710 -73.328200 5.348090 -0.000007 -0.000001 19.538700 76.993700 -68.986000 24.328600 0.000019 0.000005 12.848200 1.729890 -82.460400 22.291600 -0.000001 0.000005 31.926300 5.662160 -25.927000 12.994500 -0.242716 -4.980390 91.370400 -3.006670 -65.483400 -5.348130 -0.000001 -0.000004 -66.662100 -49.963900 -100.828000 -24.328900 0.000322 -0.000009 4.403280 1.679320 -69.171300 -22.291500 -0.000108 -0.000004 20.968700 5.472450 -5.461910 -2.192480 -6.469440 -0.000000 -168.241000 -15.556200 -2.315610 39.081100 -0.000007 -0.000012 -0.178267 0.456828 21.317300 40.985400 -0.000006 -0.000013 -6.199930 2.895630 -63.948400 11.754300 -0.000000 0.000003 -0.000034 -0.000403 -16.593300 -2.192510 6.469440 -0.000001 176.366000 18.368500 178.334000 -39.081100 -0.002282 -0.040193 0.041681 -0.105927 19.906800 -40.985400 0.000008 0.000006 0.328533 2.116780 -63.785500 -11.754300 -0.000006 -0.000006 -0.007155 -0.080986 -19.870100
0.000000 0.000000 0.000000 0.000000 0.000000 -0.000000 -1.443400 92.128400 -1.860100 87.082800 -2.630510 2.998170 15.735700 0.000005 -0.000001 90.348400 86.067900 -91.180100 8.984550 -0.406207 -0.000000 0.099300 0.103441 -1.662290 16.377300 -0.000001 -0.000001 0.244430 -3.249510 1.321210 6.456720 -0.000001 -0.000000 -3.515770 -0.571306 -13.226800 12.994200 -0.242716 4.980390 -89.180200 -2.735330 -73.308900 5.348090 -0.000007 -0.000001 19.935400 76.948300 -69.297300 24.328600 0.000019 0.000005 12.837400 1.721790 -82.488800 22.291600 -0.000001 0.000005 31.979200 5.662320 -25.907900 12.994500 -0.242716 -4.980390 91.379100 -3.024820 -65.475900 -5.348130 -0.000001 -0.000004 -66.896600 -49.926400 -101.012000 -24.328900 0.000322 -0.000009 4.391770 1.676020 -69.158700 -22.291500 -0.000108 -0.000004 20.871100 5.474870 -5.553430 -2.192480 -6.469440 -0.000000 -168.245000 -15.636300 -2.372360 39.081100 -0.000007 -0.000012 -0.177790 0.455826 21.308000 40.985400 -0.000006 -0.000013 -6.188400 2.901790 -63.910900 11.754300 -0.000000 0.000003 -0.000037 -0.000432 -16.594400 -2.192510 6.469440 -0.000001 176.404000 18.351000 178.274000 -39.081100 -0.002282 -0.040193 0.042188 -0.107471 19.882100 -40.985400 0.000008 0.000006 0.397434 2.133790 -63.751300 -11.754300 -0.000006 -0.000006 -0.007285 -0.082096 -19.915400
